<?xml version="1.0" encoding="utf-8"?>
<!-- Generator: Adobe Illustrator 16.0.0, SVG Export Plug-In . SVG Version: 6.00 Build 0)  -->
<!DOCTYPE svg PUBLIC "-//W3C//DTD SVG 1.1//EN" "http://www.w3.org/Graphics/SVG/1.1/DTD/svg11.dtd">
<svg version="1.1" xmlns="http://www.w3.org/2000/svg" xmlns:xlink="http://www.w3.org/1999/xlink" x="0px" y="0px" width="512px"
	 height="512px" viewBox="0 0 512 512" enable-background="new 0 0 512 512" xml:space="preserve">
<g id="Layer_2">
	<circle stroke="#9F9800" stroke-miterlimit="10" cx="256" cy="254" r="254"/>
</g>
<g id="Layer_1">
	<path fill="#FFFF02" d="M419.374,93.078H95.021c-20.584,0-37.425,16.841-37.425,37.425v249.502
		c0,20.584,16.841,37.425,37.425,37.425h324.353c20.583,0,37.425-16.841,37.425-37.425V130.503
		C456.799,109.919,439.957,93.078,419.374,93.078z M213.043,257.739l-105.547,82.214V144.391L213.043,257.739z M126.357,142.979
		h261.68l-130.84,98.241L126.357,142.979z M217.155,262.154l40.042,43.001l40.042-43.001l82.083,105.376H135.073L217.155,262.154z
		 M301.353,257.739l105.546-113.349v195.562L301.353,257.739z"/>
</g>
</svg>
