<?xml version="1.0" encoding="utf-8"?>
<!-- Generator: Adobe Illustrator 16.0.0, SVG Export Plug-In . SVG Version: 6.00 Build 0)  -->
<!DOCTYPE svg PUBLIC "-//W3C//DTD SVG 1.1//EN" "http://www.w3.org/Graphics/SVG/1.1/DTD/svg11.dtd">
<svg version="1.1" xmlns="http://www.w3.org/2000/svg" xmlns:xlink="http://www.w3.org/1999/xlink" x="0px" y="0px" width="512px"
	 height="512px" viewBox="0 0 512 512" enable-background="new 0 0 512 512" xml:space="preserve">
<g id="Layer_2">
	<circle stroke="#9F9800" stroke-miterlimit="10" cx="256" cy="256" r="254"/>
</g>
<g id="Layer_1">
	<path fill="#FFFF02" d="M388.586,63H129.414C93.986,63,65,91.986,65,127.414v259.172C65,422.015,93.986,451,129.414,451h259.172
		c35.43,0,64.414-28.985,64.414-64.414V127.414C453,91.986,424.016,63,388.586,63z M189.205,232.75h139.589
		c2.648,7.6,4.093,15.76,4.093,24.25c0,40.741-33.146,73.887-73.887,73.887c-40.742,0-73.887-33.146-73.887-73.887
		C185.113,248.51,186.559,240.35,189.205,232.75z M404.5,232.769v96.981v48.5c0,13.337-10.913,24.25-24.25,24.25h-242.5
		c-13.338,0-24.25-10.913-24.25-24.25v-48.5v-96.981v-0.019h37.932c-1.759,7.806-2.694,15.919-2.694,24.25
		c0,60.797,49.463,110.262,110.262,110.262c60.798,0,110.262-49.465,110.262-110.262c0-8.331-0.934-16.444-2.692-24.25H404.5
		V232.769z M404.5,147.875c0,6.668-5.458,12.125-12.125,12.125h-24.25c-6.667,0-12.125-5.457-12.125-12.125v-24.25
		c0-6.668,5.458-12.125,12.125-12.125h24.25c6.667,0,12.125,5.457,12.125,12.125V147.875z"/>
</g>
</svg>
