<?xml version="1.0" encoding="utf-8"?>
<!-- Generator: Adobe Illustrator 16.0.0, SVG Export Plug-In . SVG Version: 6.00 Build 0)  -->
<!DOCTYPE svg PUBLIC "-//W3C//DTD SVG 1.1//EN" "http://www.w3.org/Graphics/SVG/1.1/DTD/svg11.dtd">
<svg version="1.1" xmlns="http://www.w3.org/2000/svg" xmlns:xlink="http://www.w3.org/1999/xlink" x="0px" y="0px" width="512px"
	 height="512px" viewBox="0 0 512 512" enable-background="new 0 0 512 512" xml:space="preserve">
<g id="Layer_2">
	<circle stroke="#9F9800" stroke-miterlimit="10" cx="255" cy="253" r="254"/>
</g>
<g id="Layer_1">
	<path fill="#FFFF02" d="M452.843,134.822c-14.835,6.58-30.78,11.027-47.515,13.027c17.08-10.239,30.199-26.452,36.378-45.771
		c-15.988,9.481-33.692,16.366-52.537,20.076c-15.09-16.08-36.593-26.125-60.389-26.125c-45.688,0-82.729,37.04-82.729,82.728
		c0,6.484,0.731,12.798,2.142,18.854c-68.755-3.451-129.716-36.386-170.519-86.439c-7.122,12.218-11.203,26.429-11.203,41.591
		c0,28.702,14.605,54.025,36.805,68.861c-13.562-0.43-26.318-4.151-37.472-10.349c-0.007,0.345-0.007,0.693-0.007,1.041
		c0,40.083,28.517,73.52,66.362,81.122c-6.941,1.889-14.25,2.901-21.796,2.901c-5.331,0-10.513-0.519-15.566-1.483
		c10.529,32.864,41.081,56.785,77.283,57.451c-28.314,22.19-63.986,35.416-102.747,35.416c-6.678,0-13.263-0.392-19.736-1.158
		c36.612,23.475,80.099,37.171,126.818,37.171c152.17,0,235.383-126.062,235.383-235.387c0-3.587-0.08-7.155-0.239-10.703
		C427.728,165.982,441.752,151.412,452.843,134.822z"/>
</g>
</svg>
